<?xml version="1.0" standalone="no"?>
<!DOCTYPE svg PUBLIC "-//W3C//DTD SVG 20010904//EN"
 "http://www.w3.org/TR/2001/REC-SVG-20010904/DTD/svg10.dtd">
<svg version="1.0" xmlns="http://www.w3.org/2000/svg"
 width="520.000000pt" height="520.000000pt" viewBox="0 0 520.000000 520.000000"
 preserveAspectRatio="xMidYMid meet">
<metadata>
Created by potrace 1.11, written by Peter Selinger 2001-2013
</metadata>
<g transform="translate(0.000000,520.000000) scale(0.100000,-0.100000)"
fill="#000000" stroke="none">
<path d="M2740 4850 l0 -70 -70 0 -70 0 0 -65 0 -65 -65 0 -65 0 0 -70 0 -70
-140 0 -140 0 0 -70 0 -70 -65 0 -65 0 0 -1025 0 -1025 135 0 135 0 0 -340 0
-340 -135 0 -135 0 0 -70 0 -70 -70 0 -70 0 0 -135 0 -135 -135 0 -135 0 0
-70 0 -70 -70 0 -70 0 0 -70 0 -70 -275 0 -275 0 0 -135 0 -135 -65 0 -65 0 0
-205 0 -205 -70 0 -70 0 0 -135 0 -135 1095 0 1095 0 0 135 0 135 70 0 70 0 0
-135 0 -135 750 0 750 0 0 270 0 270 -70 0 -70 0 0 70 0 70 -65 0 -65 0 0 70
0 70 -140 0 -140 0 0 65 0 65 -65 0 -65 0 0 70 0 70 -70 0 -70 0 0 70 0 70
-70 0 -70 0 0 65 0 65 -65 0 -65 0 0 70 0 70 -415 0 -415 0 0 550 0 550 -135
0 -135 0 0 135 0 135 135 0 135 0 0 70 0 70 70 0 70 0 0 -70 0 -70 140 0 140
0 0 135 0 135 135 0 135 0 0 140 0 140 -135 0 -135 0 0 135 0 135 -140 0 -140
0 0 70 0 70 70 0 70 0 0 65 0 65 70 0 70 0 0 140 0 140 475 0 475 0 0 205 0
205 -65 0 -65 0 0 65 0 65 -345 0 -345 0 0 70 0 70 -205 0 -205 0 0 -70z m280
-1570 l0 -140 -140 0 -140 0 0 140 0 140 140 0 140 0 0 -140z m0 -2120 l0 -70
135 0 135 0 0 -205 0 -205 -70 0 -70 0 0 -70 0 -70 -205 0 -205 0 0 70 0 70
-70 0 -70 0 0 70 0 70 -65 0 -65 0 0 65 0 65 -70 0 -70 0 0 140 0 140 345 0
345 0 0 -70z"/>
<path d="M3700 3555 l0 -135 -135 0 -135 0 0 -140 0 -140 135 0 135 0 0 -135
0 -135 135 0 135 0 0 135 0 135 140 0 140 0 0 140 0 140 -140 0 -140 0 0 135
0 135 -135 0 -135 0 0 -135z m270 -275 l0 -140 -135 0 -135 0 0 140 0 140 135
0 135 0 0 -140z"/>
<path d="M3150 2735 l0 -275 140 0 140 0 0 135 0 135 -70 0 -70 0 0 140 0 140
-70 0 -70 0 0 -275z"/>
<path d="M3020 2115 l0 -65 65 0 65 0 0 -70 0 -70 205 0 205 0 0 70 0 70 70 0
70 0 0 65 0 65 -340 0 -340 0 0 -65z"/>
</g>
</svg>
